<svg xmlns="http://www.w3.org/2000/svg" width="22" height="22" viewBox="0 0 22 22">
  <g id="Group_6" data-name="Group 6" transform="translate(-486.035 -236.23)">
    <g id="Group_16" data-name="Group 16" transform="translate(486.035 236.23)">
      <path id="Path_32" data-name="Path 32" d="M508.413,243.149l1.508,1.115a.225.225,0,0,1-.131.4l-.473,0h0a.222.222,0,0,1-.222-.22.644.644,0,0,0-1.289.008,1.513,1.513,0,0,0,1.1,1.444v.031a.645.645,0,1,0,1.289,0V245.9a1.512,1.512,0,0,0,1.1-1.467v0a1.52,1.52,0,0,0-.612-1.2l-1.508-1.115a.222.222,0,0,1,.132-.4h.474a.222.222,0,0,1,.222.221.644.644,0,1,0,1.289,0,1.513,1.513,0,0,0-1.1-1.454v-.031a.645.645,0,0,0-1.289,0v.03a1.51,1.51,0,0,0-.493,2.669Z" transform="translate(-495.29 -237.751)" fill="#fff"/>
      <path id="Path_33" data-name="Path 33" d="M506.817,247.115a5.442,5.442,0,1,0-5.444-5.442A5.449,5.449,0,0,0,506.817,247.115Zm0-9.6a4.153,4.153,0,1,1-4.155,4.153A4.159,4.159,0,0,1,506.817,237.519Z" transform="translate(-492.557 -236.23)" fill="#fff"/>
      <path id="Path_34" data-name="Path 34" d="M507.591,256.839a2.1,2.1,0,0,0-2.861-.437l-2.453,1.64a2.02,2.02,0,0,0-1.78-1.067h-1.749a4.788,4.788,0,0,0-7.49,1.211l-.328.2-.085-.249a.645.645,0,0,0-.818-.4l-3.556,1.215a.645.645,0,0,0-.4.819l2.151,6.293a.645.645,0,0,0,.818.4l3.556-1.215a.645.645,0,0,0,.394-.839l5.643-.175a7.324,7.324,0,0,0,4.262-1.365l4.256-3.027a2.1,2.1,0,0,0,.441-3Zm-18.359,8.2-1.735-5.074,2.336-.8,1.734,5.074Zm17.17-6.243-4.256,3.027a6.046,6.046,0,0,1-3.525,1.127h-.02l-6.049.187-1.2-3.5.727-.444h0a.648.648,0,0,0,.241-.266,3.5,3.5,0,0,1,5.688-.863.656.656,0,0,0,.468.2H500.5a.73.73,0,1,1,0,1.46h-3.636a.644.644,0,1,0,0,1.289H500.5a2.02,2.02,0,0,0,1.963-1.542l2.991-2,.011-.007a.815.815,0,0,1,.94,1.331Z" transform="translate(-486.035 -244.499)" fill="#fff"/>
    </g>
  </g>
</svg>
