<svg id="Group_9" data-name="Group 9" xmlns="http://www.w3.org/2000/svg" width="22" height="22" viewBox="0 0 22 22">
  <path id="Path_11" data-name="Path 11" d="M279.617,227.23h-6.872a1.606,1.606,0,0,0-1.6,1.6v4.128a1.606,1.606,0,0,0,1.6,1.6h6.872a1.606,1.606,0,0,0,1.6-1.6v-4.128A1.606,1.606,0,0,0,279.617,227.23Zm.232,5.732a.229.229,0,0,1-.232.227h-6.872a.229.229,0,0,1-.232-.227v-4.128a.229.229,0,0,1,.232-.227h6.872a.229.229,0,0,1,.232.227Z" transform="translate(-271.14 -227.23)" fill="#fff"/>
  <path id="Path_12" data-name="Path 12" d="M279.617,243.8h-6.872a1.606,1.606,0,0,0-1.6,1.6v9.622a1.606,1.606,0,0,0,1.6,1.6h6.872a1.606,1.606,0,0,0,1.6-1.6V245.4A1.606,1.606,0,0,0,279.617,243.8Zm.232,11.227a.234.234,0,0,1-.232.232h-6.872a.234.234,0,0,1-.232-.232V245.4a.234.234,0,0,1,.232-.232h6.872a.234.234,0,0,1,.232.232Z" transform="translate(-271.14 -234.631)" fill="#fff"/>
  <path id="Path_13" data-name="Path 13" d="M301.152,253.74h-6.878a1.609,1.609,0,0,0-1.6,1.6v4.122a1.609,1.609,0,0,0,1.6,1.6h6.878a1.606,1.606,0,0,0,1.6-1.6v-4.122A1.606,1.606,0,0,0,301.152,253.74Zm.227,5.727a.229.229,0,0,1-.227.232h-6.878a.233.233,0,0,1-.227-.232v-4.122a.233.233,0,0,1,.227-.232h6.878a.229.229,0,0,1,.227.232Z" transform="translate(-280.757 -239.071)" fill="#fff"/>
  <path id="Path_14" data-name="Path 14" d="M301.152,227.23h-6.878a1.609,1.609,0,0,0-1.6,1.6v9.628a1.609,1.609,0,0,0,1.6,1.6h6.878a1.606,1.606,0,0,0,1.6-1.6v-9.628A1.606,1.606,0,0,0,301.152,227.23Zm.227,11.232a.224.224,0,0,1-.227.227h-6.878a.228.228,0,0,1-.227-.227v-9.628a.228.228,0,0,1,.227-.227h6.878a.224.224,0,0,1,.227.227Z" transform="translate(-280.757 -227.23)" fill="#fff"/>
</svg>
