<svg xmlns="http://www.w3.org/2000/svg" width="22.05" height="22.05" viewBox="0 0 22.05 22.05">
  <g id="Franchise" transform="translate(-359.2 -148.341)">
    <path id="Path_78" data-name="Path 78" d="M381.142,162.414l-1.47-1.47a.367.367,0,0,0-.26-.108h-5.88a.366.366,0,0,0-.259.108l-1.47,1.47a.367.367,0,0,0-.108.26v2.205a1.1,1.1,0,0,0,.735,1.035v4.11a.367.367,0,0,0,.367.367h7.35a.367.367,0,0,0,.368-.367v-4.11a1.1,1.1,0,0,0,.735-1.035v-2.205A.367.367,0,0,0,381.142,162.414Zm-2.1,2.465a.368.368,0,0,1-.735,0v-.368h.735Zm-1.47,0a.368.368,0,0,1-.735,0v-.368h.735Zm-1.47,0a.368.368,0,0,1-.735,0v-.368h.735Zm-1.47,0a.368.368,0,0,1-.735,0v-.368h.735Zm-1.47,0a.368.368,0,0,1-.735,0v-.368h.735Zm-.735-1.1v-.735h8.085v.735Zm1.255-2.205h5.575l.735.735H372.95Zm.582,8.085v-2.205h1.47v2.205Zm2.2,0v-2.572a.367.367,0,0,0-.367-.368H373.9a.368.368,0,0,0-.368.368v2.572h-.367v-3.742a1.793,1.793,0,0,1,1.837-.221,1.086,1.086,0,0,0,1.47,0,1.086,1.086,0,0,0,1.47,0,1.086,1.086,0,0,0,1.47,0,1.106,1.106,0,0,0,.368.221v3.742Zm4.043-4.777a.368.368,0,0,1-.735,0v-.368h.735Z" fill="#fff"/>
    <path id="Path_79" data-name="Path 79" d="M379.045,166.716h-1.838a.368.368,0,0,0-.367.368v1.47a.367.367,0,0,0,.367.367h1.838a.367.367,0,0,0,.367-.367v-1.47A.367.367,0,0,0,379.045,166.716Zm-.368,1.47h-1.1v-.735h1.1Z" fill="#fff"/>
    <path id="Path_80" data-name="Path 80" d="M368.647,162.414l-1.47-1.47a.367.367,0,0,0-.26-.108h-5.88a.366.366,0,0,0-.259.108l-1.47,1.47a.367.367,0,0,0-.108.26v2.205a1.1,1.1,0,0,0,.735,1.035v4.11a.367.367,0,0,0,.367.367h7.35a.367.367,0,0,0,.368-.367v-4.11a1.1,1.1,0,0,0,.735-1.035v-2.205A.367.367,0,0,0,368.647,162.414Zm-2.1,2.465a.367.367,0,0,1-.735,0v-.368h.735Zm-1.47,0a.367.367,0,0,1-.735,0v-.368h.735Zm-1.47,0a.367.367,0,0,1-.735,0v-.368h.735Zm-1.47,0a.368.368,0,0,1-.735,0v-.368h.735Zm-1.47,0a.368.368,0,0,1-.735,0v-.368h.735Zm-.735-1.1v-.735h8.085v.735Zm1.255-2.205h5.575l.735.735h-7.045Zm.582,8.085v-2.205h1.47v2.205Zm2.2,0v-2.572a.367.367,0,0,0-.367-.368h-2.2a.368.368,0,0,0-.368.368v2.572h-.367v-3.742a1.793,1.793,0,0,1,1.837-.221,1.086,1.086,0,0,0,1.47,0,1.086,1.086,0,0,0,1.47,0,1.086,1.086,0,0,0,1.47,0,1.106,1.106,0,0,0,.368.221v3.742Zm4.043-4.777a.367.367,0,0,1-.735,0v-.368h.735Z" fill="#fff"/>
    <path id="Path_81" data-name="Path 81" d="M366.55,166.716h-1.838a.368.368,0,0,0-.367.368v1.47a.367.367,0,0,0,.367.367h1.838a.367.367,0,0,0,.367-.367v-1.47A.367.367,0,0,0,366.55,166.716Zm-.368,1.47h-1.1v-.735h1.1Z" fill="#fff"/>
    <path id="Path_82" data-name="Path 82" d="M374.895,149.919l-1.47-1.47a.369.369,0,0,0-.26-.108h-5.88a.369.369,0,0,0-.26.108l-1.47,1.47a.371.371,0,0,0-.108.26v2.205a1.105,1.105,0,0,0,.735,1.035v4.11a.367.367,0,0,0,.368.367h7.35a.367.367,0,0,0,.367-.367v-4.11a1.1,1.1,0,0,0,.735-1.035v-2.205A.366.366,0,0,0,374.895,149.919Zm-7.458-.843h5.576l.735.735H366.7Zm-1.254,2.94h.735v.368a.367.367,0,0,1-.735,0Zm1.837,5.145v-2.205h1.47v2.205Zm2.205,0v-2.572a.368.368,0,0,0-.368-.368h-2.2a.368.368,0,0,0-.367.368v2.572h-.368v-3.742a1.14,1.14,0,0,0,.368-.221,1.086,1.086,0,0,0,1.47,0,1.086,1.086,0,0,0,1.47,0,1.086,1.086,0,0,0,1.47,0,1.086,1.086,0,0,0,1.47,0,1.146,1.146,0,0,0,.367.221v3.742Zm-2.573-4.777v-.368h.735v.368a.367.367,0,0,1-.735,0Zm1.47,0v-.368h.735v.368a.367.367,0,0,1-.735,0Zm1.47,0v-.368h.735v.368a.367.367,0,0,1-.735,0Zm1.47,0v-.368h.735v.368a.367.367,0,0,1-.735,0Zm2.2,0a.367.367,0,0,1-.735,0v-.368h.735Zm0-1.1h-8.085v-.735h8.085Z" fill="#fff"/>
    <path id="Path_83" data-name="Path 83" d="M372.8,154.221H370.96a.368.368,0,0,0-.368.368v1.47a.367.367,0,0,0,.368.367H372.8a.367.367,0,0,0,.368-.367v-1.47A.368.368,0,0,0,372.8,154.221Zm-.367,1.47h-1.1v-.735h1.1Z" fill="#fff"/>
    <path id="Path_84" data-name="Path 84" d="M375,154.956h.735v.735H375Z" fill="#fff"/>
    <path id="Path_85" data-name="Path 85" d="M376.472,154.956h.735v.735h-.735Z" fill="#fff"/>
    <path id="Path_86" data-name="Path 86" d="M377.942,154.956h.735v.735h-.735Z" fill="#fff"/>
    <path id="Path_87" data-name="Path 87" d="M377.942,156.426h.735v.735h-.735Z" fill="#fff"/>
    <path id="Path_88" data-name="Path 88" d="M377.942,157.9h.735v.735h-.735Z" fill="#fff"/>
    <path id="Path_89" data-name="Path 89" d="M377.942,159.366h.735v.735h-.735Z" fill="#fff"/>
    <path id="Path_90" data-name="Path 90" d="M364.712,154.956h.735v.735h-.735Z" fill="#fff"/>
    <path id="Path_91" data-name="Path 91" d="M363.242,154.956h.735v.735h-.735Z" fill="#fff"/>
    <path id="Path_92" data-name="Path 92" d="M361.772,154.956h.735v.735h-.735Z" fill="#fff"/>
    <path id="Path_93" data-name="Path 93" d="M361.772,156.426h.735v.735h-.735Z" fill="#fff"/>
    <path id="Path_94" data-name="Path 94" d="M361.772,157.9h.735v.735h-.735Z" fill="#fff"/>
    <path id="Path_95" data-name="Path 95" d="M361.772,159.366h.735v.735h-.735Z" fill="#fff"/>
  </g>
</svg>
