<svg xmlns="http://www.w3.org/2000/svg" width="3.826" height="3.826" viewBox="0 0 3.826 3.826">
  <g id="Group_67" data-name="Group 67" transform="translate(-453.017 -155.615)">
    <path id="Path_32" data-name="Path 32" d="M454.531,157.512l.53.392a.078.078,0,0,1,.012.111.077.077,0,0,1-.058.03h-.166a.078.078,0,0,1-.078-.078.227.227,0,0,0-.453,0,.531.531,0,0,0,.386.508v.011a.227.227,0,0,0,.453.018.056.056,0,0,0,0-.018v-.01a.53.53,0,0,0,.387-.515h0a.531.531,0,0,0-.215-.422l-.53-.392a.077.077,0,0,1-.016-.109.078.078,0,0,1,.062-.032h.167a.078.078,0,0,1,.078.078.227.227,0,0,0,.453,0,.531.531,0,0,0-.387-.511v-.011a.227.227,0,0,0-.453,0v.01a.531.531,0,0,0-.173.939Z" fill="#fff"/>
    <path id="Path_33" data-name="Path 33" d="M454.931,159.441a1.913,1.913,0,1,0-1.914-1.913A1.913,1.913,0,0,0,454.931,159.441Zm0-3.375a1.46,1.46,0,1,1-1.461,1.46,1.461,1.461,0,0,1,1.461-1.46Z" fill="#fff"/>
  </g>
</svg>
