<svg xmlns="http://www.w3.org/2000/svg" width="19.849" height="22.598" viewBox="0 0 19.849 22.598">
  <g id="Group_7" data-name="Group 7" transform="translate(-1247.86 -360.262)">
    <path id="Path_48" data-name="Path 48" d="M1256.339,368.077a5.112,5.112,0,1,0,5.112-5.111A5.117,5.117,0,0,0,1256.339,368.077Zm5.112,3.779a3.778,3.778,0,1,1,3.779-3.779A3.783,3.783,0,0,1,1261.451,371.856Z" fill="#fff"/>
    <path id="Path_49" data-name="Path 49" d="M1265.943,373.553h-1.559a.666.666,0,0,0,0,1.333h1.559a.433.433,0,0,1,.433.432v4.675a1.534,1.534,0,1,1-3.067,0v-5.729a.667.667,0,0,0-1.333,0v5.729a2.84,2.84,0,0,0,.445,1.534h-11.694a1.536,1.536,0,0,1-1.534-1.534V362.028a.434.434,0,0,1,.434-.433h11.915a.434.434,0,0,1,.434.433.667.667,0,0,0,1.333,0,1.768,1.768,0,0,0-1.767-1.766h-11.915a1.768,1.768,0,0,0-1.767,1.766v17.965a2.871,2.871,0,0,0,2.867,2.867h14.115a2.87,2.87,0,0,0,2.867-2.867v-4.675A1.767,1.767,0,0,0,1265.943,373.553Z" fill="#fff"/>
    <path id="Path_50" data-name="Path 50" d="M1251.734,371.081h3.118a.667.667,0,0,0,0-1.333h-3.118a.667.667,0,0,0,0,1.333Z" fill="#fff"/>
    <path id="Path_51" data-name="Path 51" d="M1251.734,366.957h3.118a.667.667,0,0,0,0-1.333h-3.118a.667.667,0,0,0,0,1.333Z" fill="#fff"/>
    <path id="Path_52" data-name="Path 52" d="M1259.435,373.873h-7.7a.667.667,0,0,0,0,1.333h7.7a.667.667,0,0,0,0-1.333Z" fill="#fff"/>
    <path id="Path_53" data-name="Path 53" d="M1259.435,377.722h-7.7a.667.667,0,0,0,0,1.334h7.7a.667.667,0,0,0,0-1.334Z" fill="#fff"/>
    <path id="Path_32" data-name="Path 32" d="M1260.654,368.03l1.06.784a.158.158,0,0,1-.092.281h-.332a.155.155,0,0,1-.156-.154.453.453,0,1,0-.906.005,1.062,1.062,0,0,0,.773,1.015v.022a.453.453,0,0,0,.906.036v-.055a1.063,1.063,0,0,0,.773-1.031h0a1.065,1.065,0,0,0-.43-.843l-1.06-.784a.156.156,0,0,1-.032-.218.155.155,0,0,1,.125-.063h.333a.156.156,0,0,1,.156.155.453.453,0,1,0,.906,0,1.064,1.064,0,0,0-.773-1.022v-.022a.453.453,0,0,0-.906,0v.021a1.062,1.062,0,0,0-.347,1.876Z" fill="#fff"/>
  </g>
</svg>
