<svg xmlns="http://www.w3.org/2000/svg" width="21.18" height="21.911" viewBox="0 0 21.18 21.911">
  <g id="multi_server" data-name="multi server" transform="translate(-444.34 -148.429)">
    <path id="Path_56" data-name="Path 56" d="M454.93,154.638a1.461,1.461,0,1,0,1.461,1.46A1.46,1.46,0,0,0,454.93,154.638Zm0,2.191a.73.73,0,1,1,.73-.731A.73.73,0,0,1,454.93,156.829Z" fill="#fff"/>
    <path id="Path_57" data-name="Path 57" d="M454.93,160.845c-2,0-3.287.574-3.287,1.461v6.573c0,.888,1.29,1.461,3.287,1.461s3.287-.573,3.287-1.461v-6.573C458.217,161.419,456.927,160.845,454.93,160.845Zm0,8.765c-1.785,0-2.556-.484-2.556-.731V167.67a7.059,7.059,0,0,0,5.112,0v1.209C457.486,169.126,456.715,169.61,454.93,169.61Zm0-2.191c-1.785,0-2.556-.484-2.556-.731v-1.209a7.059,7.059,0,0,0,5.112,0v1.209C457.486,166.935,456.715,167.419,454.93,167.419Zm0-2.191c-1.785,0-2.556-.484-2.556-.731v-1.209a7.059,7.059,0,0,0,5.112,0V164.5C457.486,164.744,456.715,165.228,454.93,165.228Zm0-2.192c-1.785,0-2.556-.483-2.556-.73s.771-.73,2.556-.73,2.556.483,2.556.73S456.715,163.036,454.93,163.036Z" fill="#fff"/>
    <path id="Path_58" data-name="Path 58" d="M462.233,160.845c-2,0-3.286.574-3.286,1.461v6.573c0,.888,1.29,1.461,3.286,1.461s3.287-.573,3.287-1.461v-6.573C465.52,161.419,464.23,160.845,462.233,160.845Zm0,.731c1.785,0,2.557.483,2.557.73s-.772.73-2.557.73-2.556-.483-2.556-.73S460.449,161.576,462.233,161.576Zm0,8.034c-1.784,0-2.556-.484-2.556-.731V167.67a7.062,7.062,0,0,0,5.113,0v1.209C464.79,169.126,464.018,169.61,462.233,169.61Zm0-2.191c-1.784,0-2.556-.484-2.556-.731v-1.209a7.062,7.062,0,0,0,5.113,0v1.209C464.79,166.935,464.018,167.419,462.233,167.419Zm0-2.191c-1.784,0-2.556-.484-2.556-.731v-1.209a7.062,7.062,0,0,0,5.113,0V164.5C464.79,164.744,464.018,165.228,462.233,165.228Z" fill="#fff"/>
    <path id="Path_59" data-name="Path 59" d="M447.627,160.845c-2,0-3.287.574-3.287,1.461v6.573c0,.888,1.29,1.461,3.287,1.461s3.286-.573,3.286-1.461v-6.573C450.913,161.419,449.623,160.845,447.627,160.845Zm0,8.765c-1.785,0-2.557-.484-2.557-.731V167.67a7.062,7.062,0,0,0,5.113,0v1.209C450.183,169.126,449.411,169.61,447.627,169.61Zm0-2.191c-1.785,0-2.557-.484-2.557-.731v-1.209a7.062,7.062,0,0,0,5.113,0v1.209C450.183,166.935,449.411,167.419,447.627,167.419Zm0-2.191c-1.785,0-2.557-.484-2.557-.731v-1.209a7.062,7.062,0,0,0,5.113,0V164.5C450.183,164.744,449.411,165.228,447.627,165.228Zm0-2.192c-1.785,0-2.557-.483-2.557-.73s.772-.73,2.557-.73,2.556.483,2.556.73S449.411,163.036,447.627,163.036Z" fill="#fff"/>
    <path id="Path_60" data-name="Path 60" d="M447.261,159.02v1.46h.731v-1.46a1.1,1.1,0,0,1,1.1-1.1h2.191v-.73h-2.191A1.829,1.829,0,0,0,447.261,159.02Z" fill="#fff"/>
    <path id="Path_61" data-name="Path 61" d="M461.868,159.02v1.46h.731v-1.46a1.829,1.829,0,0,0-1.826-1.826h-2.191v.73h2.191A1.1,1.1,0,0,1,461.868,159.02Z" fill="#fff"/>
    <path id="Path_62" data-name="Path 62" d="M460.773,152.081h-.4a2.479,2.479,0,0,0,.03-.365,2.56,2.56,0,0,0-2.557-2.556,2.52,2.52,0,0,0-1.5.489,4.017,4.017,0,0,0-6.884,2.432h-.38a2.191,2.191,0,1,0,0,4.382h2.556v.366a.368.368,0,0,0,.278.354l.245.062-.132.215a.366.366,0,0,0,.055.446l1.033,1.033a.37.37,0,0,0,.446.055l.215-.131.062.244a.367.367,0,0,0,.355.278h1.46a.367.367,0,0,0,.355-.278l.062-.244.215.131a.371.371,0,0,0,.446-.055l1.033-1.033a.366.366,0,0,0,.055-.446l-.132-.215.245-.062a.368.368,0,0,0,.278-.354v-.366h2.556a2.191,2.191,0,0,0,0-4.382Zm-3.287,4.463-.445.109a.372.372,0,0,0-.249.216.359.359,0,0,0,.026.328l.234.395-.628.628-.4-.238a.371.371,0,0,0-.544.227l-.109.445h-.892l-.109-.445a.371.371,0,0,0-.544-.227l-.395.238-.628-.628.234-.395a.359.359,0,0,0,.026-.328.371.371,0,0,0-.249-.216l-.445-.109v-.891l.445-.11a.37.37,0,0,0,.249-.215.361.361,0,0,0-.026-.329l-.234-.394.628-.628.395.233a.359.359,0,0,0,.328.026.367.367,0,0,0,.216-.249l.109-.445h.892l.109.445a.367.367,0,0,0,.216.249.359.359,0,0,0,.328-.026l.4-.233.628.628-.234.394a.361.361,0,0,0-.026.329.37.37,0,0,0,.249.215l.445.11Zm3.287-.811h-2.556v-.365a.366.366,0,0,0-.278-.354l-.245-.062.132-.216a.365.365,0,0,0-.055-.445l-1.033-1.034a.366.366,0,0,0-.446-.055l-.215.132-.062-.245a.366.366,0,0,0-.355-.277H454.2a.366.366,0,0,0-.355.277l-.062.245-.215-.132a.372.372,0,0,0-.446.055l-1.033,1.034a.365.365,0,0,0-.055.445l.132.216-.245.062a.366.366,0,0,0-.278.354v.365h-2.556a1.461,1.461,0,0,1,0-2.921h.731a.366.366,0,0,0,.365-.366,3.286,3.286,0,0,1,5.846-2.059.366.366,0,0,0,.514.053.291.291,0,0,0,.027-.024,1.825,1.825,0,0,1,3.107,1.3,1.864,1.864,0,0,1-.106.61.37.37,0,0,0,.044.332.375.375,0,0,0,.3.154h.858a1.461,1.461,0,0,1,0,2.921Z" fill="#fff"/>
  </g>
</svg>
