<svg xmlns="http://www.w3.org/2000/svg" width="26.421" height="30.061" viewBox="0 0 26.421 30.061">
  <g id="notification" transform="translate(-30.999)">
    <path id="Path_45" data-name="Path 45" d="M53.31,15.433v-2.81a9.117,9.117,0,0,0-6.458-8.709V2.642a2.642,2.642,0,1,0-5.284,0V3.914a9.116,9.116,0,0,0-6.458,8.709v2.81a13.829,13.829,0,0,1-3.865,9.615.881.881,0,0,0,.636,1.49h8.015a4.4,4.4,0,0,0,8.63,0h8.015a.881.881,0,0,0,.636-1.49A13.829,13.829,0,0,1,53.31,15.433ZM43.329,2.642a.881.881,0,1,1,1.761,0v.923c-.29-.028-.584-.043-.881-.043s-.591.015-.881.043ZM44.209,28.3a2.646,2.646,0,0,1-2.491-1.761H46.7A2.646,2.646,0,0,1,44.209,28.3ZM33.778,24.777a15.571,15.571,0,0,0,3.092-9.343v-2.81a7.339,7.339,0,1,1,14.678,0v2.81a15.571,15.571,0,0,0,3.092,9.343Z" fill="#3b3b3b"/>
    <path id="Path_46" data-name="Path 46" d="M393.1,61.106a.881.881,0,0,0,1.761,0A13.124,13.124,0,0,0,391,51.765a.881.881,0,0,0-1.245,1.245,11.374,11.374,0,0,1,3.353,8.1Z" transform="translate(-337.445 -48.483)" fill="#3b3b3b"/>
    <path id="Path_47" data-name="Path 47" d="M31.881,61.987a.881.881,0,0,0,.881-.881,11.374,11.374,0,0,1,3.353-8.1.881.881,0,0,0-1.245-1.245A13.124,13.124,0,0,0,31,61.107.881.881,0,0,0,31.881,61.987Z" transform="translate(-0.001 -48.483)" fill="#3b3b3b"/>
  </g>
</svg>
