<svg id="Group_14" data-name="Group 14" xmlns="http://www.w3.org/2000/svg" width="23.418" height="22" viewBox="0 0 23.418 22">
  <g id="Group_13" data-name="Group 13">
    <path id="Path_30" data-name="Path 30" d="M388.084,227.23H374.3a4.816,4.816,0,1,0,0,9.632H377.8v3.89l-.17-.143a2.23,2.23,0,0,0-2.951.126,1.923,1.923,0,0,0,.121,2.868l3,2.516v2.423a.687.687,0,0,0,.687.687h8.231a.687.687,0,0,0,.687-.687v-7.709a2.063,2.063,0,0,0-1.8-2.044l-3.687-.456v-1.473h6.165a4.764,4.764,0,0,0,1.841-.368,4.815,4.815,0,0,0-1.841-9.264Zm-2.049,20.626h-6.857v-1.368h6.857Zm-.6-7.7a.688.688,0,0,1,.6.681v4.28h-7.3l-3.049-2.56a.56.56,0,0,1-.038-.846.856.856,0,0,1,1.1-.049l1.3,1.088a.685.685,0,0,0,1.126-.522V233.45a.684.684,0,1,1,1.368,0v5.489a.688.688,0,0,0,.6.681Zm4.489-5.2a3.408,3.408,0,0,1-1.841.538H381.92V233.45a2.058,2.058,0,0,0-4.115,0v2.038H374.3a3.24,3.24,0,0,1-.8-.1,3.44,3.44,0,0,1,.8-6.786h13.786a3.438,3.438,0,0,1,1.841,6.346Z" transform="translate(-369.48 -227.23)" fill="#fff"/>
    <path id="Path_31" data-name="Path 31" d="M399.817,233.4l-2.742,2.742a.686.686,0,0,1-.973,0l-1.368-1.374a.684.684,0,1,1,.967-.967l.89.885,1.978-1.978.28-.28a.686.686,0,0,1,.967.973Z" transform="translate(-380.767 -229.479)" fill="#fff"/>
  </g>
</svg>
