<svg xmlns="http://www.w3.org/2000/svg" width="21.18" height="14.725" viewBox="0 0 21.18 14.725">
  <g id="Group_337" data-name="Group 337" transform="translate(-40 -528)">
    <g id="Group_66" data-name="Group 66" transform="translate(-404.34 372.385)">
      <g id="multi_server" data-name="multi server">
        <path id="Path_69" data-name="Path 69" d="M454.93,160.845c-2,0-3.287.574-3.287,1.461v6.573c0,.888,1.29,1.461,3.287,1.461s3.287-.573,3.287-1.461v-6.573C458.217,161.419,456.927,160.845,454.93,160.845Zm0,8.765c-1.785,0-2.556-.484-2.556-.731V167.67a7.059,7.059,0,0,0,5.112,0v1.209C457.486,169.126,456.715,169.61,454.93,169.61Zm0-2.191c-1.785,0-2.556-.484-2.556-.731v-1.209a7.059,7.059,0,0,0,5.112,0v1.209C457.486,166.935,456.715,167.419,454.93,167.419Zm0-2.191c-1.785,0-2.556-.484-2.556-.731v-1.209a7.059,7.059,0,0,0,5.112,0V164.5C457.486,164.744,456.715,165.228,454.93,165.228Zm0-2.192c-1.785,0-2.556-.483-2.556-.73s.771-.73,2.556-.73,2.556.483,2.556.73S456.715,163.036,454.93,163.036Z" fill="#fff"/>
        <path id="Path_70" data-name="Path 70" d="M462.233,160.845c-2,0-3.286.574-3.286,1.461v6.573c0,.888,1.29,1.461,3.286,1.461s3.287-.573,3.287-1.461v-6.573C465.52,161.419,464.23,160.845,462.233,160.845Zm0,.731c1.785,0,2.557.483,2.557.73s-.772.73-2.557.73-2.556-.483-2.556-.73S460.449,161.576,462.233,161.576Zm0,8.034c-1.784,0-2.556-.484-2.556-.731V167.67a7.062,7.062,0,0,0,5.113,0v1.209C464.79,169.126,464.018,169.61,462.233,169.61Zm0-2.191c-1.784,0-2.556-.484-2.556-.731v-1.209a7.062,7.062,0,0,0,5.113,0v1.209C464.79,166.935,464.018,167.419,462.233,167.419Zm0-2.191c-1.784,0-2.556-.484-2.556-.731v-1.209a7.062,7.062,0,0,0,5.113,0V164.5C464.79,164.744,464.018,165.228,462.233,165.228Z" fill="#fff"/>
        <path id="Path_71" data-name="Path 71" d="M447.627,160.845c-2,0-3.287.574-3.287,1.461v6.573c0,.888,1.29,1.461,3.287,1.461s3.286-.573,3.286-1.461v-6.573C450.913,161.419,449.623,160.845,447.627,160.845Zm0,8.765c-1.785,0-2.557-.484-2.557-.731V167.67a7.062,7.062,0,0,0,5.113,0v1.209C450.183,169.126,449.411,169.61,447.627,169.61Zm0-2.191c-1.785,0-2.557-.484-2.557-.731v-1.209a7.062,7.062,0,0,0,5.113,0v1.209C450.183,166.935,449.411,167.419,447.627,167.419Zm0-2.191c-1.785,0-2.557-.484-2.557-.731v-1.209a7.062,7.062,0,0,0,5.113,0V164.5C450.183,164.744,449.411,165.228,447.627,165.228Zm0-2.192c-1.785,0-2.557-.483-2.557-.73s.772-.73,2.557-.73,2.556.483,2.556.73S449.411,163.036,447.627,163.036Z" fill="#fff"/>
        <path id="Path_72" data-name="Path 72" d="M447.261,159.02v1.46h.731v-1.46a1.1,1.1,0,0,1,1.1-1.1h3.191v-.73h-3.191A1.829,1.829,0,0,0,447.261,159.02Z" fill="#fff"/>
        <path id="Path_73" data-name="Path 73" d="M461.868,159.02v1.46h.731v-1.46a1.829,1.829,0,0,0-1.826-1.826h-3.191v.73h3.191A1.1,1.1,0,0,1,461.868,159.02Z" fill="#fff"/>
      </g>
    </g>
    <g id="Group_67" data-name="Group 67" transform="translate(-404.34 372.385)">
      <path id="Path_32" data-name="Path 32" d="M454.531,157.512l.53.392a.078.078,0,0,1,.012.111.077.077,0,0,1-.058.03h-.166a.078.078,0,0,1-.078-.078.227.227,0,0,0-.453,0,.531.531,0,0,0,.386.508v.011a.227.227,0,0,0,.453.018.056.056,0,0,0,0-.018v-.01a.53.53,0,0,0,.387-.515h0a.531.531,0,0,0-.215-.422l-.53-.392a.077.077,0,0,1-.016-.109.078.078,0,0,1,.062-.032h.167a.078.078,0,0,1,.078.078.227.227,0,0,0,.453,0,.531.531,0,0,0-.387-.511v-.011a.227.227,0,0,0-.453,0v.01a.531.531,0,0,0-.173.939Z" fill="#fff"/>
      <path id="Path_33" data-name="Path 33" d="M454.931,159.441a1.913,1.913,0,1,0-1.914-1.913A1.913,1.913,0,0,0,454.931,159.441Zm0-3.375a1.46,1.46,0,1,1-1.461,1.46,1.461,1.461,0,0,1,1.461-1.46Z" fill="#fff"/>
    </g>
  </g>
</svg>
