<svg xmlns="http://www.w3.org/2000/svg" width="21.9" height="21.9" viewBox="0 0 21.9 21.9">
  <g id="Group_8" data-name="Group 8" transform="translate(-1273.78 -360.502)">
    <path id="Path_54" data-name="Path 54" d="M1277.031,370.767a1.919,1.919,0,0,0,1.335-.54l1.888.944a1.864,1.864,0,0,0-.015.238,1.924,1.924,0,1,0,3.661-.83l2.567-2.566a1.925,1.925,0,0,0,2.666-2.313l2.23-1.672a1.921,1.921,0,1,0-.771-1.026l-2.229,1.672a1.924,1.924,0,0,0-2.8,2.431l-2.567,2.567a1.921,1.921,0,0,0-2.164.352l-1.889-.944a1.863,1.863,0,0,0,.016-.238,1.925,1.925,0,1,0-1.925,1.925Zm15.4-8.982a.641.641,0,1,1-.641.641A.643.643,0,0,1,1292.429,361.785Zm-5.133,3.849a.642.642,0,1,1-.641.642A.643.643,0,0,1,1287.3,365.634Zm-5.132,5.133a.641.641,0,1,1-.642.642A.643.643,0,0,1,1282.164,370.767Zm-5.133-2.566a.642.642,0,1,1-.642.641A.642.642,0,0,1,1277.031,368.2Z" fill="#fff"/>
    <path id="Path_55" data-name="Path 55" d="M1295.038,381.118h-.684V367.559a.641.641,0,0,0-.642-.641h-2.566a.642.642,0,0,0-.642.641v13.559h-1.283v-9.709a.641.641,0,0,0-.641-.642h-2.567a.641.641,0,0,0-.641.642v9.709h-1.284v-4.576a.641.641,0,0,0-.641-.642h-2.567a.641.641,0,0,0-.641.642v4.576h-1.283v-7.143a.642.642,0,0,0-.642-.641h-2.566a.641.641,0,0,0-.642.641v7.143h-.684a.642.642,0,0,0,0,1.284h20.616a.642.642,0,1,0,0-1.284Zm-3.25-12.917h1.283v12.917h-1.283Zm-5.133,3.849h1.283v9.068h-1.283Zm-5.133,5.133h1.283v3.935h-1.283Zm-5.133-2.566h1.283v6.5h-1.283Z" fill="#fff"/>
  </g>
</svg>
