<svg xmlns="http://www.w3.org/2000/svg" width="21.955" height="21.999" viewBox="0 0 21.955 21.999">
  <g id="Group_336" data-name="Group 336" transform="translate(-40.045 -582)">
    <path id="Path_74" data-name="Path 74" d="M396.946,170.34a1.252,1.252,0,0,1-1.25-1.25V168.7a.152.152,0,0,0-.1-.146c-.124-.048-.237-.1-.349-.147a.468.468,0,0,0-.07-.005.14.14,0,0,0-.109.037l-.274.275a1.252,1.252,0,0,1-1.766,0l-1-1a1.256,1.256,0,0,1,0-1.765l.277-.277a.157.157,0,0,0,.032-.177c-.052-.113-.1-.228-.144-.343a.156.156,0,0,0-.146-.105h-.389a1.25,1.25,0,0,1-1.249-1.249V162.4a1.25,1.25,0,0,1,1.249-1.249h.388a.156.156,0,0,0,.147-.1c.048-.121.095-.235.146-.348a.157.157,0,0,0-.031-.177l-.276-.277a1.252,1.252,0,0,1,0-1.765l.995-1a1.251,1.251,0,0,1,1.764,0l.278.276a.156.156,0,0,0,.111.047c.179-.067.294-.114.41-.159a.152.152,0,0,0,.1-.145v-.389a1.251,1.251,0,0,1,1.25-1.249h1.41a1.251,1.251,0,0,1,1.249,1.249v.388a.154.154,0,0,0,.1.146c.122.048.235.1.347.146a.4.4,0,0,0,.071.006.133.133,0,0,0,.106-.037l.276-.276a1.252,1.252,0,0,1,1.765,0l1,1a1.254,1.254,0,0,1,0,1.764l-.276.278a.155.155,0,0,0-.032.176c.052.114.1.228.144.344a.155.155,0,0,0,.146.1h.388a1.251,1.251,0,0,1,1.249,1.249v1.409a1.251,1.251,0,0,1-1.249,1.249h-.388a.15.15,0,0,0-.145.1c-.049.122-.1.235-.148.347a.157.157,0,0,0,.031.177l.277.277a1.256,1.256,0,0,1,0,1.765l-1,1a1.252,1.252,0,0,1-1.765,0l-.277-.277a.155.155,0,0,0-.111-.046c-.179.066-.293.114-.411.159a.155.155,0,0,0-.1.146v.387a1.252,1.252,0,0,1-1.249,1.25Zm-1.762-3.031a1.234,1.234,0,0,1,.517.112c.091.041.185.08.28.116a1.26,1.26,0,0,1,.805,1.165v.388a.16.16,0,0,0,.16.16h1.41a.159.159,0,0,0,.159-.16V168.7a1.262,1.262,0,0,1,.8-1.165c.093-.036.187-.075.278-.116a1.248,1.248,0,0,1,1.4.249l.278.277a.162.162,0,0,0,.226,0l1-1a.16.16,0,0,0,0-.227l-.276-.276a1.261,1.261,0,0,1-.251-1.4c.042-.092.081-.186.118-.281a1.258,1.258,0,0,1,1.164-.8h.389a.16.16,0,0,0,.16-.16V162.4a.16.16,0,0,0-.16-.16h-.388a1.262,1.262,0,0,1-1.165-.8c-.036-.094-.075-.188-.117-.28a1.262,1.262,0,0,1,.25-1.4l.277-.276a.162.162,0,0,0,0-.227l-1-1a.162.162,0,0,0-.227,0l-.275.275a1.246,1.246,0,0,1-.881.362,1.231,1.231,0,0,1-.517-.112c-.092-.041-.185-.08-.28-.116a1.246,1.246,0,0,1-.806-1.165v-.389a.16.16,0,0,0-.159-.16h-1.41a.16.16,0,0,0-.16.16v.388a1.263,1.263,0,0,1-.806,1.165c-.094.036-.188.075-.281.116a1.227,1.227,0,0,1-.516.113,1.243,1.243,0,0,1-.88-.362l-.277-.277a.162.162,0,0,0-.226,0l-1,1a.16.16,0,0,0,0,.227l.276.275a1.26,1.26,0,0,1,.251,1.4c-.042.092-.08.185-.117.28a1.245,1.245,0,0,1-1.164.806h-.389a.16.16,0,0,0-.159.16v1.409a.16.16,0,0,0,.159.16h.388a1.246,1.246,0,0,1,1.165.806c.036.1.075.188.117.28a1.257,1.257,0,0,1-.25,1.4l-.277.277a.162.162,0,0,0,0,.227l1,.994a.156.156,0,0,0,.113.048.158.158,0,0,0,.114-.048l.276-.275A1.246,1.246,0,0,1,395.184,167.309Z" transform="translate(-350.367 433.659)" fill="#fff"/>
    <path id="Path_75" data-name="Path 75" d="M397.54,166.46l-.1-.2-.009.192c-.069,0-.139-.006-.208-.015a3.666,3.666,0,0,1-.392-.075,3.364,3.364,0,0,1-.021-6.52c.12-.029.241-.051.363-.068l.117-.013c.09-.01.169-.014.25-.016l.111-.008a3.366,3.366,0,0,1,2,.667l.2.159.205.193c.053.053.107.112.158.173a3.469,3.469,0,0,1,.371.53,3.656,3.656,0,0,1,.178.378l.058.154c.025.075.048.15.07.227.016.059.033.12.046.182.021.093.034.187.046.283s.017.178.021.268l.007.156c0,.125-.007.192-.013.26s-.015.148-.026.22a3.936,3.936,0,0,1-.557,1.521,1.348,1.348,0,0,1-.22.269,4.38,4.38,0,0,1-.944.682c-.059.03-.294.141-.337.157l-.307.108c-.07.02-.307.076-.307.076-.1.019-.188.032-.279.042a3.159,3.159,0,0,1-.367.024C397.616,166.467,397.578,166.463,397.54,166.46Zm.111-5.632a2.367,2.367,0,0,0-.573.071,2.274,2.274,0,0,0,0,4.406,2.6,2.6,0,0,0,.266.05,2.489,2.489,0,0,0,.267.018,2.174,2.174,0,0,0,.227-.008l.119-.014a2.416,2.416,0,0,0,.639-.187l.148-.073a2.268,2.268,0,0,0,1.139-1.59c.013-.077.023-.156.029-.235a2.9,2.9,0,0,0,0-.308,2.247,2.247,0,0,0-.045-.336l.161-.141-.186.047a1.8,1.8,0,0,0-.055-.181l-.036-.1a2.434,2.434,0,0,0-.111-.238c-.079-.13-.111-.179-.144-.225l-.069-.092c-.036-.044-.072-.086-.109-.127l.069-.209-.135.137a2.363,2.363,0,0,0-.183-.163s-.179-.13-.231-.162a2.433,2.433,0,0,0-.567-.253,2.782,2.782,0,0,0-.275-.06A2.407,2.407,0,0,0,397.651,160.828Z" transform="translate(-350.367 433.659)" fill="#fff"/>
    <path id="Path_76" data-name="Path 76" d="M407.894,166.022a1.245,1.245,0,0,1-.883-.365l-1.157-1.156a.549.549,0,0,1,0-.781.546.546,0,0,1,.77.012l1.156,1.153a.161.161,0,0,0,.226,0l1.5-1.5a.161.161,0,0,0,0-.226l-.786-.788a1.24,1.24,0,0,1-.235-1.431,6.6,6.6,0,0,0,.349-.839,1.24,1.24,0,0,1,1.174-.844h1.113a.161.161,0,0,0,.161-.16v-2.113a.161.161,0,0,0-.161-.16H410.01a1.242,1.242,0,0,1-1.179-.843,6.479,6.479,0,0,0-.349-.839,1.241,1.241,0,0,1,.236-1.433l.784-.786a.159.159,0,0,0,.047-.114.154.154,0,0,0-.047-.112l-1.494-1.5a.163.163,0,0,0-.114-.047.161.161,0,0,0-.113.047l-.787.785a1.231,1.231,0,0,1-.879.365,1.254,1.254,0,0,1-.552-.129,6.615,6.615,0,0,0-.84-.35,1.238,1.238,0,0,1-.843-1.18V149.59a.16.16,0,0,0-.16-.16h-2.114a.16.16,0,0,0-.16.16V150.7a1.238,1.238,0,0,1-.842,1.179,6.49,6.49,0,0,0-.839.349,1.257,1.257,0,0,1-.554.131,1.229,1.229,0,0,1-.879-.366l-.787-.785a.161.161,0,0,0-.227,0l-1.494,1.5a.156.156,0,0,0-.047.113.155.155,0,0,0,.047.113l1.155,1.158a.544.544,0,0,1-.768.771l-1.158-1.16a1.25,1.25,0,0,1,0-1.766l1.495-1.495a1.249,1.249,0,0,1,1.765,0l.788.786a.15.15,0,0,0,.11.046,10.762,10.762,0,0,1,1.046-.422.152.152,0,0,0,.1-.145v-1.11a1.25,1.25,0,0,1,1.249-1.249h2.114a1.25,1.25,0,0,1,1.249,1.249V150.7a.151.151,0,0,0,.1.147,7.362,7.362,0,0,1,.98.408.465.465,0,0,0,.069,0,.133.133,0,0,0,.106-.036l.785-.786a1.249,1.249,0,0,1,1.767,0l1.5,1.495a1.25,1.25,0,0,1,0,1.766l-.786.786a.153.153,0,0,0-.031.178,7.483,7.483,0,0,1,.4.979.149.149,0,0,0,.141.1h1.113a1.251,1.251,0,0,1,1.249,1.25V159.1a1.251,1.251,0,0,1-1.249,1.25H410.01a.152.152,0,0,0-.147.1,7.465,7.465,0,0,1-.407.978.151.151,0,0,0,.031.174l.786.787a1.251,1.251,0,0,1,0,1.767l-1.495,1.495A1.247,1.247,0,0,1,407.894,166.022Z" transform="translate(-350.367 433.659)" fill="#fff"/>
    <path id="Path_77" data-name="Path 77" d="M405.648,161.584a.544.544,0,0,1-.378-.936,3.7,3.7,0,0,0,0-5.242,3.683,3.683,0,0,0-5.209.034.544.544,0,0,1-.773-.766,4.772,4.772,0,1,1,6.752,6.746.554.554,0,0,1-.39.164Z" transform="translate(-350.367 433.659)" fill="#fff"/>
  </g>
</svg>
