<svg xmlns="http://www.w3.org/2000/svg" width="28.84" height="20.782" viewBox="0 0 28.84 20.782">
  <g id="Group_335" data-name="Group 335" transform="translate(-39.58 -854)">
    <path id="Path_96" data-name="Path 96" d="M325.318,168.923a3.044,3.044,0,1,1,3.044-3.044A3.047,3.047,0,0,1,325.318,168.923Zm0-4.739a1.7,1.7,0,1,0,1.7,1.695A1.7,1.7,0,0,0,325.318,164.184Z" transform="translate(-278.902 705.859)" fill="#fff"/>
    <path id="Path_97" data-name="Path 97" d="M341.434,168.923a3.044,3.044,0,1,1,3.045-3.044A3.047,3.047,0,0,1,341.434,168.923Zm0-4.739a1.7,1.7,0,1,0,1.7,1.695A1.7,1.7,0,0,0,341.434,164.184Z" transform="translate(-278.902 705.859)" fill="#fff"/>
    <path id="Path_98" data-name="Path 98" d="M343.6,166.553v-1.348h2.37v-4.342l-3.96-6.159h-4.172v10.5h1.423v1.348h-2.1a.675.675,0,0,1-.674-.674v-11.85a.676.676,0,0,1,.674-.674h5.214a.669.669,0,0,1,.566.31l4.267,6.635a.678.678,0,0,1,.107.365v5.214a.674.674,0,0,1-.673.674Z" transform="translate(-278.902 705.859)" fill="#fff"/>
    <path id="Path_99" data-name="Path 99" d="M339.065,160.865a.675.675,0,0,1-.675-.674v-4.266a.675.675,0,0,1,.675-.674h4.465V156.6h-3.792v2.917h6.636v1.348Z" transform="translate(-278.902 705.859)" fill="#fff"/>
    <path id="Path_100" data-name="Path 100" d="M327.487,166.553v-1.348h9.007v-13.82H319.83v13.82h3.319v1.348h-3.993a.674.674,0,0,1-.674-.674V150.711a.675.675,0,0,1,.674-.674h18.012a.676.676,0,0,1,.674.674v15.168a.675.675,0,0,1-.674.674Z" transform="translate(-278.902 705.859)" fill="#fff"/>
    <rect id="Rectangle_75" data-name="Rectangle 75" width="3.244" height="1.348" transform="translate(40.055 869.168)" fill="#fff"/>
    <rect id="Rectangle_76" data-name="Rectangle 76" width="8.459" height="1.348" transform="translate(49.533 869.168)" fill="#fff"/>
    <rect id="Rectangle_77" data-name="Rectangle 77" width="2.297" height="1.348" transform="translate(65.65 869.168)" fill="#fff"/>
    <rect id="Rectangle_78" data-name="Rectangle 78" width="16.99" height="1.348" transform="translate(41.477 857.792)" fill="#fff"/>
    <rect id="Rectangle_79" data-name="Rectangle 79" width="1.349" height="1.348" transform="translate(45.742 871.064)" fill="#fff"/>
    <rect id="Rectangle_80" data-name="Rectangle 80" width="1.349" height="1.348" transform="translate(61.857 871.064)" fill="#fff"/>
    <rect id="Rectangle_81" data-name="Rectangle 81" width="7.036" height="1.348" transform="translate(41.477 854)" fill="#fff"/>
    <rect id="Rectangle_82" data-name="Rectangle 82" width="1.349" height="1.348" transform="translate(39.58 854)" fill="#fff"/>
  </g>
</svg>
