<svg id="Group_1" data-name="Group 1" xmlns="http://www.w3.org/2000/svg" width="30.06" height="30.061" viewBox="0 0 30.06 30.061">
  <path id="user" d="M311.756,380.5a15.027,15.027,0,1,0-.008,21.255A15.027,15.027,0,0,0,311.756,380.5Zm-18.129,21.572a7.613,7.613,0,0,1,15,0A13.267,13.267,0,0,1,293.627,402.073Zm2.718-12.829a4.78,4.78,0,1,1,4.787,4.772h-.008A4.774,4.774,0,0,1,296.345,389.244Zm14.512,10.888c-.234.249-.468.483-.71.71a9.4,9.4,0,0,0-5.459-6.124,6.538,6.538,0,1,0-7.128,0,9.378,9.378,0,0,0-5.459,6.124,13.269,13.269,0,1,1,18.756-.71Z" transform="translate(-286.095 -376.094)" fill="#3b3b3b"/>
</svg>
