<svg xmlns="http://www.w3.org/2000/svg" width="21.999" height="22" viewBox="0 0 21.999 22">
  <path id="user" d="M304.875,379.319a11,11,0,1,0-.005,15.555A11,11,0,0,0,304.875,379.319Zm-13.268,15.787a5.572,5.572,0,0,1,10.974,0A9.709,9.709,0,0,1,291.607,395.106Zm1.989-9.388a3.5,3.5,0,1,1,3.5,3.492h-.006A3.494,3.494,0,0,1,293.6,385.718Zm10.621,7.968c-.171.182-.343.354-.519.519a6.877,6.877,0,0,0-4-4.482,4.785,4.785,0,1,0-5.216,0,6.863,6.863,0,0,0-4,4.482,9.711,9.711,0,1,1,13.726-.519Z" transform="translate(-286.095 -376.094)" fill="#fff"/>
</svg>
